<?xml version="1.0" standalone="no"?>
<!DOCTYPE svg PUBLIC "-//W3C//DTD SVG 20010904//EN"
 "http://www.w3.org/TR/2001/REC-SVG-20010904/DTD/svg10.dtd">
<svg version="1.0" xmlns="http://www.w3.org/2000/svg"
 width="700.000000pt" height="700.000000pt" viewBox="0 0 700.000000 700.000000"
 preserveAspectRatio="xMidYMid meet">
<metadata>
Created by potrace 1.14, written by Peter Selinger 2001-2017
</metadata>
<g transform="translate(0.000000,700.000000) scale(0.100000,-0.100000)"
fill="#000000" stroke="none">
<path d="M2548 6405 c-52 -14 -125 -62 -156 -104 -120 -163 -40 -400 154 -456
16 -5 169 -10 339 -11 171 -1 313 -3 318 -3 10 -1 9 -299 -1 -305 -5 -3 -33
-8 -63 -11 -30 -4 -85 -13 -124 -21 -38 -9 -79 -17 -89 -19 -191 -41 -490
-161 -686 -278 -91 -54 -250 -164 -262 -181 -4 -7 -67 49 -151 131 -157 156
-197 182 -295 188 -117 6 -221 -54 -272 -159 -27 -55 -33 -78 -33 -131 1 -105
29 -151 187 -310 86 -85 134 -140 129 -148 -3 -7 -25 -37 -47 -67 -113 -154
-239 -379 -291 -519 -8 -20 -23 -61 -35 -91 -22 -59 -76 -239 -83 -280 -3 -14
-12 -61 -21 -105 -8 -44 -18 -96 -21 -115 -26 -174 -26 -553 -1 -687 3 -11 7
-44 11 -74 4 -30 9 -57 11 -60 2 -3 6 -20 9 -37 15 -87 80 -310 110 -377 7
-16 23 -55 35 -85 66 -169 246 -463 376 -615 180 -211 365 -372 589 -514 83
-52 321 -174 365 -186 14 -4 30 -11 35 -15 15 -12 209 -76 300 -99 72 -18 191
-41 285 -55 164 -26 516 -25 667 0 33 5 179 32 208 38 105 21 290 81 425 138
387 163 749 445 1005 783 188 248 334 547 415 845 64 240 84 392 85 650 0 206
-8 298 -41 465 -9 44 -18 91 -20 105 -10 50 -68 237 -95 305 -16 39 -29 73
-29 78 0 15 -105 224 -154 307 -55 93 -160 245 -176 255 -6 3 -10 10 -10 15 0
5 61 70 135 145 118 119 161 171 172 210 25 90 22 148 -12 224 -48 104 -144
165 -260 164 -111 0 -146 -21 -312 -186 -83 -82 -147 -138 -151 -132 -7 11
-61 50 -157 117 -268 184 -686 343 -1010 384 -27 3 -53 9 -58 13 -4 4 -6 74
-5 156 l3 148 325 1 c306 2 328 3 370 23 189 87 234 329 87 476 -21 21 -59 48
-85 59 -47 22 -52 22 -972 23 -690 1 -937 -2 -972 -10z"/>
</g>
</svg>
